<svg width="600" height="200" viewBox="0 0 600 200" fill="none" xmlns="http://www.w3.org/2000/svg">
<g filter="url(#filter0_di_1_4730)">
<path d="M138.32 128.8V132H105.2V128.8H113.76L107.04 108H84.88L78.08 128.8H86.24V132H68.8V128.8H74.24L94 68H113.12L132.88 128.8H138.32ZM106 104.8L95.92 73.92L85.92 104.8H106ZM231.494 128.8V132H213.734L207.094 125.36V87.2H201.494L195.894 92.8V128.8H200.694V132H177.494V87.2H171.894L166.294 92.8V128.8H171.094V132H141.494V128.8H147.894V87.2H141.494V84H158.854L164.534 89.6L170.134 84H188.454L194.134 89.6L199.734 84H217.654L225.094 91.44V128.8H231.494ZM245.299 132L238.659 125.36V113.04L245.299 106.4H265.859V87.2H257.459V100H240.659V90.64L247.299 84H277.619L284.259 90.64V128.8H290.659V132H272.499L267.699 127.12L262.819 132H245.299ZM257.459 109.6V128.8H261.059L265.859 124V109.6H257.459ZM321.897 128.8V132H305.337L297.897 124.56V64.8H292.297V61.6H308.857L316.297 69.04V128.8H321.897ZM377.069 84V144.56L369.629 152H334.109L327.469 145.36V136H345.469V148.8H358.669V123.36L354.829 127.2H335.309L327.869 119.76V91.44L335.309 84H354.829L360.509 89.6L366.109 84H377.069ZM358.669 118.4V92.8L353.069 87.2H345.869V124H353.069L358.669 118.4ZM392.487 132L385.847 125.36V113.04L392.487 106.4H413.047V87.2H404.647V100H387.847V90.64L394.487 84H424.807L431.447 90.64V128.8H437.847V132H419.687L414.887 127.12L410.007 132H392.487ZM404.647 109.6V128.8H408.247L413.047 124V109.6H404.647ZM531.884 128.8V132H514.124L507.484 125.36V87.2H501.884L496.284 92.8V128.8H501.084V132H477.884V87.2H472.284L466.684 92.8V128.8H471.484V132H441.884V128.8H448.284V87.2H441.884V84H459.244L464.924 89.6L470.524 84H488.844L494.524 89.6L500.124 84H518.044L525.484 91.44V128.8H531.884Z" fill="url(#paint0_linear_1_4730)"/>
</g>
<defs>
<filter id="filter0_di_1_4730" x="58.8" y="51.6" width="483.084" height="110.4" filterUnits="userSpaceOnUse" color-interpolation-filters="sRGB">
<feFlood flood-opacity="0" result="BackgroundImageFix"/>
<feColorMatrix in="SourceAlpha" type="matrix" values="0 0 0 0 0 0 0 0 0 0 0 0 0 0 0 0 0 0 127 0" result="hardAlpha"/>
<feOffset/>
<feGaussianBlur stdDeviation="5"/>
<feComposite in2="hardAlpha" operator="out"/>
<feColorMatrix type="matrix" values="0 0 0 0 0.686275 0 0 0 0 0.588235 0 0 0 0 1 0 0 0 1 0"/>
<feBlend mode="normal" in2="BackgroundImageFix" result="effect1_dropShadow_1_4730"/>
<feBlend mode="normal" in="SourceGraphic" in2="effect1_dropShadow_1_4730" result="shape"/>
<feColorMatrix in="SourceAlpha" type="matrix" values="0 0 0 0 0 0 0 0 0 0 0 0 0 0 0 0 0 0 127 0" result="hardAlpha"/>
<feOffset/>
<feGaussianBlur stdDeviation="2.5"/>
<feComposite in2="hardAlpha" operator="arithmetic" k2="-1" k3="1"/>
<feColorMatrix type="matrix" values="0 0 0 0 0.686275 0 0 0 0 0.588235 0 0 0 0 1 0 0 0 1 0"/>
<feBlend mode="normal" in2="shape" result="effect2_innerShadow_1_4730"/>
</filter>
<linearGradient id="paint0_linear_1_4730" x1="302" y1="61.5" x2="302" y2="152" gradientUnits="userSpaceOnUse">
<stop offset="0.0001" stop-color="#AF96FF"/>
<stop offset="1" stop-color="white"/>
</linearGradient>
</defs>
</svg>
